<svg width="84" height="72" viewBox="0 0 84 72" fill="none" xmlns="http://www.w3.org/2000/svg">
<path d="M62 70L82 36L62 2H22L2 36L22 70H62Z" stroke="#C7DF9E" stroke-width="4" stroke-linejoin="round"/>
<path d="M42 46C44.6522 46 47.1957 44.9464 49.0711 43.0711C50.9464 41.1957 52 38.6522 52 36C52 33.3478 50.9464 30.8043 49.0711 28.9289C47.1957 27.0536 44.6522 26 42 26C39.3478 26 36.8043 27.0536 34.9289 28.9289C33.0536 30.8043 32 33.3478 32 36C32 38.6522 33.0536 41.1957 34.9289 43.0711C36.8043 44.9464 39.3478 46 42 46Z" stroke="#C7DF9E" stroke-width="4" stroke-linejoin="round"/>
</svg>
