<svg width="156" height="57" viewBox="0 0 156 57" fill="none" xmlns="http://www.w3.org/2000/svg">
<path d="M3.07758 12.2752H10.0876C11.2383 12.2752 12.1322 12.346 12.7695 12.4876C13.4245 12.6292 14.0086 12.9036 14.522 13.3107C15.7966 14.2666 16.4338 15.5501 16.4338 17.1609C16.4338 18.9843 15.6018 20.2765 13.9378 21.0377C14.9469 21.3209 15.7523 21.8963 16.3542 22.7637C16.956 23.6311 17.257 24.6489 17.257 25.8173C17.257 27.7114 16.5577 29.1895 15.1593 30.2517C14.6636 30.6234 14.0617 30.8889 13.3537 31.0483C12.6456 31.2076 11.6189 31.2872 10.2735 31.2872H3.07758V12.2752ZM5.73289 14.6649V20.188H10.2204C11.3887 20.188 12.2473 19.9756 12.796 19.5507C13.3625 19.1082 13.6457 18.4443 13.6457 17.5592C13.6457 16.5325 13.3625 15.7979 12.796 15.3553C12.2473 14.8951 11.3091 14.6649 9.98141 14.6649H5.73289ZM5.73289 22.5778V28.8975H10.0345C11.3799 28.8975 12.4509 28.685 13.2474 28.2602C14.0617 27.8176 14.4689 26.9856 14.4689 25.7642C14.4689 23.6399 13.0704 22.5778 10.2735 22.5778H5.73289Z" fill="#363431"/>
<path d="M20.4382 21.9671C20.4382 19.9313 20.8099 18.1523 21.5534 16.6299C22.3146 15.1075 23.4033 13.9392 24.8195 13.1249C26.2356 12.3106 27.8731 11.9034 29.7318 11.9034C31.1303 11.9034 32.3871 12.1335 33.5023 12.5938C34.6353 13.0363 35.6001 13.6825 36.3966 14.5322C37.1932 15.3819 37.804 16.3909 38.2288 17.5592C38.6537 18.7276 38.8661 20.0818 38.8661 21.6219C38.8661 23.4806 38.5032 25.18 37.7774 26.7201C37.0693 28.2425 36.0072 29.4462 34.591 30.3313C33.1926 31.1987 31.5197 31.6324 29.5725 31.6324C27.6783 31.6324 26.0498 31.243 24.6867 30.4641C23.3236 29.6852 22.2703 28.5611 21.5269 27.0918C20.8011 25.6049 20.4382 23.8966 20.4382 21.9671ZM23.2263 21.914C23.2263 24.1444 23.8016 25.9235 24.9522 27.2512C26.1029 28.5788 27.6783 29.2426 29.6787 29.2426C31.6967 29.2426 33.2722 28.57 34.4052 27.2246C35.5558 25.8615 36.1311 23.994 36.1311 21.6219C36.1311 20.8784 36.0692 20.188 35.9452 19.5507C35.8213 18.8958 35.6266 18.285 35.3611 17.7186C34.83 16.6033 34.0688 15.7536 33.0775 15.1695C32.1039 14.5853 30.9709 14.2932 29.6787 14.2932C27.6429 14.2932 26.0586 14.9747 24.9257 16.3378C23.7927 17.7009 23.2263 19.5596 23.2263 21.914Z" fill="#363431"/>
<path d="M43.5152 12.2752H49.9411C51.5342 12.2752 52.738 12.3637 53.5523 12.5407C54.3843 12.7177 55.1455 13.0895 55.8359 13.6559C56.8449 14.4348 57.6415 15.5146 58.2257 16.8954C58.8098 18.2762 59.1019 19.8517 59.1019 21.6219C59.1019 23.0912 58.8806 24.4808 58.4381 25.7907C57.9955 27.1007 57.3759 28.1894 56.5794 29.0568C55.8005 29.9065 54.9242 30.4906 53.9506 30.8093C52.9947 31.1279 51.7201 31.2872 50.1269 31.2872H43.5152V12.2752ZM46.1705 14.6649V28.8975H49.9676C51.7732 28.8975 53.0655 28.6231 53.8444 28.0743C55.5261 26.8529 56.3669 24.6843 56.3669 21.5688C56.3669 20.1349 56.1634 18.9135 55.7562 17.9044C55.3491 16.8777 54.756 16.0988 53.9771 15.5678C53.0743 14.9659 51.7113 14.6649 49.8879 14.6649H46.1705Z" fill="#363431"/>
<path d="M61.0874 12.2752H64.2207L69.8765 21.2767L75.3464 12.2752H78.4797L71.2041 23.7727V31.2872H68.5223V23.7727L61.0874 12.2752Z" fill="#363431"/>
<path d="M88.7232 12.2752H103.965V14.6649H97.6717V31.2872H94.9632V14.6649H88.7232V12.2752Z" fill="#363431"/>
<path d="M107.872 12.2752H110.528V31.2872H107.872V12.2752Z" fill="#363431"/>
<path d="M116.448 12.2752H120.219L125.052 28.154L129.858 12.2752H133.602V31.2872H130.92V16.0457L126.22 31.2872H123.75L119.104 15.9926V31.2872H116.448V12.2752Z" fill="#363431"/>
<path d="M139.571 12.2752H153.22V14.6649H142.227V20.2411H152.397V22.6309H142.227V28.8975H153.352V31.2872H139.571V12.2752Z" fill="#363431"/>
<path d="M3.03448 49.0513H8.15261V49.9475H4.03023V52.0385H7.84393V52.9347H4.03023V55.2847H8.2024V56.1808H3.03448V49.0513Z" fill="#363431"/>
<path d="M21.4936 49.0513H22.5392L25.0883 56.1808H24.0029L23.2959 54.0599H20.5576L19.8108 56.1808H18.7454L21.4936 49.0513ZM21.9716 50.1367L20.8862 53.2533H23.0171L21.9716 50.1367Z" fill="#363431"/>
<path d="M35.5516 53.801H36.5971C36.5971 54.1528 36.6337 54.4217 36.7067 54.6076C36.7531 54.7735 36.8892 54.9328 37.1149 55.0855C37.4668 55.3046 37.9182 55.4141 38.4692 55.4141C38.8011 55.4141 39.1031 55.3676 39.3753 55.2747C39.6474 55.1818 39.8499 55.049 39.9827 54.8764C40.1221 54.7038 40.1918 54.508 40.1918 54.2889C40.1918 53.9304 39.903 53.645 39.3255 53.4326L37.1647 52.626C36.2752 52.3074 35.8304 51.7564 35.8304 50.9731C35.8304 50.6279 35.9001 50.3292 36.0395 50.0769C36.1789 49.818 36.3814 49.5956 36.6469 49.4098C36.866 49.2571 37.1382 49.131 37.4634 49.0314C37.7622 48.9517 38.0675 48.9119 38.3795 48.9119C39.435 48.9119 40.1918 49.2339 40.6498 49.8778C40.756 50.0304 40.8357 50.213 40.8888 50.4254C40.9486 50.6379 40.9784 50.9001 40.9784 51.2121H39.9329C39.9329 50.847 39.8798 50.5748 39.7736 50.3956C39.6674 50.2362 39.4815 50.1002 39.216 49.9873C38.9504 49.8678 38.665 49.8081 38.3596 49.8081C37.9082 49.8081 37.5431 49.9143 37.2643 50.1267C36.9921 50.3325 36.856 50.5847 36.856 50.8835C36.856 51.0959 36.9091 51.2619 37.0154 51.3813C37.1216 51.4942 37.3174 51.6037 37.6029 51.7099L39.8831 52.5563C40.7859 52.8882 41.2373 53.4293 41.2373 54.1794C41.2373 54.5113 41.151 54.8266 40.9784 55.1253C40.8125 55.4241 40.5801 55.673 40.2814 55.8722C39.8632 56.1642 39.2458 56.3103 38.4293 56.3103C37.5 56.3103 36.7863 56.1144 36.2885 55.7228C35.7972 55.3311 35.5516 54.7702 35.5516 54.04V53.801Z" fill="#363431"/>
<path d="M51.611 49.0513H52.786L54.9069 52.4269L56.9582 49.0513H58.1332L55.4048 53.3629V56.1808H54.3991V53.3629L51.611 49.0513Z" fill="#363431"/>
<path d="M81.1824 53.801H82.2279C82.2279 54.1528 82.2644 54.4217 82.3375 54.6076C82.3839 54.7735 82.52 54.9328 82.7457 55.0855C83.0975 55.3046 83.549 55.4141 84.0999 55.4141C84.4318 55.4141 84.7339 55.3676 85.0061 55.2747C85.2782 55.1818 85.4807 55.049 85.6135 54.8764C85.7529 54.7038 85.8226 54.508 85.8226 54.2889C85.8226 53.9304 85.5338 53.645 84.9563 53.4326L82.7955 52.626C81.906 52.3074 81.4612 51.7564 81.4612 50.9731C81.4612 50.6279 81.5309 50.3292 81.6703 50.0769C81.8097 49.818 82.0122 49.5956 82.2777 49.4098C82.4968 49.2571 82.769 49.131 83.0942 49.0314C83.393 48.9517 83.6983 48.9119 84.0103 48.9119C85.0658 48.9119 85.8226 49.2339 86.2806 49.8778C86.3868 50.0304 86.4665 50.213 86.5196 50.4254C86.5793 50.6379 86.6092 50.9001 86.6092 51.2121H85.5637C85.5637 50.847 85.5106 50.5748 85.4044 50.3956C85.2981 50.2362 85.1123 50.1002 84.8467 49.9873C84.5812 49.8678 84.2958 49.8081 83.9904 49.8081C83.539 49.8081 83.1739 49.9143 82.8951 50.1267C82.6229 50.3325 82.4868 50.5847 82.4868 50.8835C82.4868 51.0959 82.5399 51.2619 82.6461 51.3813C82.7524 51.4942 82.9482 51.6037 83.2336 51.7099L85.5139 52.5563C86.4167 52.8882 86.8681 53.4293 86.8681 54.1794C86.8681 54.5113 86.7818 54.8266 86.6092 55.1253C86.4433 55.4241 86.2109 55.673 85.9122 55.8722C85.494 56.1642 84.8766 56.3103 84.0601 56.3103C83.1307 56.3103 82.4171 56.1144 81.9193 55.7228C81.428 55.3311 81.1824 54.7702 81.1824 54.04V53.801Z" fill="#363431"/>
<path d="M98.0982 49.0513H99.0939V51.9887H102.46V49.0513H103.455V56.1808H102.46V52.8849H99.0939V56.1808H98.0982V49.0513Z" fill="#363431"/>
<path d="M116.985 49.0513H118.031L120.58 56.1808H119.494L118.787 54.0599H116.049L115.302 56.1808H114.237L116.985 49.0513ZM117.463 50.1367L116.378 53.2533H118.509L117.463 50.1367Z" fill="#363431"/>
<path d="M131.481 49.0513H134.22C134.684 49.0513 135.059 49.0779 135.345 49.131C135.604 49.1907 135.826 49.2936 136.012 49.4396C136.536 49.818 136.799 50.3657 136.799 51.0826C136.799 51.5473 136.689 51.9556 136.47 52.3074C136.258 52.6526 135.952 52.8982 135.554 53.0442C135.295 53.1438 134.897 53.1936 134.359 53.1936H132.477V56.1808H131.481V49.0513ZM132.477 52.2974H134.03C134.588 52.2974 135.013 52.2244 135.305 52.0784C135.604 51.9257 135.753 51.607 135.753 51.1224C135.753 50.6777 135.617 50.3723 135.345 50.2064C135.073 50.0338 134.691 49.9475 134.2 49.9475H132.477V52.2974Z" fill="#363431"/>
<path d="M147.959 49.0513H153.077V49.9475H148.955V52.0385H152.768V52.9347H148.955V55.2847H153.127V56.1808H147.959V49.0513Z" fill="#363431"/>
<path d="M0 40.8298H156" stroke="#363431"/>
<path d="M0 1H156" stroke="#363431"/>
</svg>
