<svg aria-hidden="true" style="position: absolute; width: 0; height: 0; overflow: hidden;" version="1.1" xmlns="http://www.w3.org/2000/svg" xmlns:xlink="http://www.w3.org/1999/xlink">
<defs>
<symbol id="icon-gaika" viewBox="0 0 37 32">
<path fill="none" stroke="#c7df9e" style="stroke: var(--color1, #c7df9e)" stroke-linejoin="round" stroke-linecap="butt" stroke-miterlimit="4" stroke-width="1.7778" d="M27.556 31.111l8.889-15.111-8.889-15.111h-17.778l-8.889 15.111 8.889 15.111h17.778z"></path>
<path fill="none" stroke="#c7df9e" style="stroke: var(--color1, #c7df9e)" stroke-linejoin="round" stroke-linecap="butt" stroke-miterlimit="4" stroke-width="1.7778" d="M18.667 20.444c2.455 0 4.444-1.99 4.444-4.444s-1.99-4.444-4.444-4.444v0c-2.455 0-4.444 1.99-4.444 4.444s1.99 4.444 4.444 4.444v0z"></path>
</symbol>
<symbol id="icon-krugi" viewBox="0 0 35 32">
<path fill="#c7df9e" style="fill: var(--color1, #c7df9e)" d="M30.084 11.65c-3.207-1.359-7.515-2.239-12.115-2.479-0.625-0.040-1.356-0.063-2.092-0.063-0.013 0-0.025 0-0.038 0h0.002c3.401-4.137 7.050-6.915 9.453-7.005 0.471-0.018 0.872 0.080 1.194 0.285 1.039 0.675 1.325 2.589 0.797 5.252-0.057 0.365 0.177 0.725 0.528 0.794 0.041 0.009 0.088 0.014 0.136 0.014 0.232 0 0.436-0.117 0.558-0.294l0.002-0.002c0.050-0.073 0.084-0.156 0.102-0.243 0.66-3.336 0.172-5.629-1.382-6.64-0.556-0.365-1.234-0.539-1.986-0.509-3.006 0.114-7.25 3.366-11.146 8.373-1.716 0.045-3.354 0.195-4.96 0.444l0.216-0.028c-0.947-4.241-0.574-7.281 0.873-8.012 0.199-0.109 0.418-0.16 0.67-0.183 1.026-0.079 2.438 0.578 3.982 1.857 0.286 0.234 0.71 0.205 0.946-0.087 0.098-0.115 0.157-0.265 0.157-0.429 0-0.206-0.094-0.39-0.241-0.512l-0.001-0.001c-1.853-1.526-3.556-2.275-4.952-2.172-0.435 0.035-0.837 0.149-1.2 0.329l0.019-0.009c-1.75 0.891-2.449 3.406-2.013 7.080 0.102 0.759 0.235 1.553 0.431 2.365-4.819 0.96-7.887 2.886-8.019 5.302-0.092 1.715 1.268 3.343 3.934 4.715 0.090 0.047 0.196 0.075 0.309 0.075 0.259 0 0.485-0.147 0.596-0.363l0.002-0.004c0.048-0.089 0.076-0.196 0.076-0.308 0-0.26-0.149-0.484-0.366-0.594l-0.004-0.002c-2.128-1.092-3.275-2.321-3.206-3.445 0.075-1.583 2.603-3.207 6.993-4.068 0.503 1.821 1.029 3.324 1.639 4.782l-0.098-0.263c-1.497 2.76-2.581 5.481-3.136 7.899-0.827 3.606-0.385 6.178 1.261 7.24 0.527 0.342 1.141 0.514 1.829 0.514 1.371 0 3.034-0.674 4.917-2.011 0.142-0.102 0.242-0.255 0.272-0.431l0.001-0.004c0.006-0.033 0.009-0.072 0.009-0.111 0-0.239-0.125-0.449-0.314-0.567l-0.003-0.002c-0.101-0.064-0.224-0.102-0.357-0.102-0.147 0-0.283 0.047-0.393 0.126l0.002-0.001c-2.266 1.616-4.175 2.154-5.23 1.467-1.114-0.725-1.36-2.84-0.671-5.816 0.464-2.029 1.33-4.287 2.507-6.613 0.292 0.641 0.603 1.28 0.924 1.921 2.094 4.091 4.657 7.645 7.211 10.018 2.037 1.886 3.93 2.869 5.484 2.869 0.516 0 0.999-0.109 1.435-0.326 1.68-0.857 2.41-3.234 2.053-6.692-0.326-3.24-1.554-7.184-3.458-11.12-0.113-0.226-0.343-0.378-0.608-0.378-0.104 0-0.202 0.023-0.29 0.065l0.004-0.002c-0.231 0.111-0.387 0.343-0.387 0.611 0 0.011 0 0.022 0.001 0.033l-0-0.002c0.004 0.089 0.026 0.175 0.065 0.255 3.946 8.194 4.228 14.903 2.013 16.028-2.34 1.194-7.968-3.446-12.322-11.966-0.375-0.692-0.819-1.62-1.227-2.567l-0.098-0.256c0.499-0.885 1.026-1.783 1.612-2.673 0.674-1.029 1.265-1.861 1.881-2.673l-0.086 0.119h0.58c0.792 0 1.652 0.017 2.546 0.069 9.585 0.504 16.114 3.748 15.982 6.343-0.058 1.119-1.36 2.251-3.563 3.103-0.241 0.105-0.407 0.341-0.407 0.616 0 0.269 0.159 0.501 0.388 0.607l0.004 0.002c0.158 0.073 0.338 0.082 0.503 0.026 2.799-1.080 4.336-2.566 4.423-4.284 0.102-1.944-1.715-3.818-5.14-5.27v-0.012l-0.012-0.005zM11.848 12.268c-0.284 0.423-0.654 1.018-1.010 1.622l-0.109 0.2c-0.332-0.819-0.694-1.897-1.003-2.998l-0.058-0.242c0.945-0.154 2.111-0.281 3.292-0.35l0.097-0.005c-0.34 0.462-0.737 1.039-1.117 1.628l-0.087 0.144v-0.016l-0.006 0.016zM17.613 13.988c-2.691 0-2.691 4.023 0 4.023 2.696 0 2.696-4.023 0-4.023z"></path>
</symbol>
<symbol id="icon-lampochka" viewBox="0 0 22 32">
<path fill="#c7df9e" style="fill: var(--color1, #c7df9e); stroke: var(--color2, #fff)" stroke="#fff" stroke-linejoin="miter" stroke-linecap="butt" stroke-miterlimit="4" stroke-width="1.3333" d="M11.167 3.542c-4.511 0-7.637 3.239-7.637 7.188 0 1.886 0.81 3.114 1.879 4.416l0.408 0.485c0.426 0.506 0.897 1.066 1.285 1.625 0.542 0.788 1.025 1.717 1.185 2.856 0.005 0.045 0.008 0.096 0.008 0.149 0 0.335-0.114 0.643-0.306 0.888l0.002-0.003c-0.264 0.338-0.671 0.553-1.128 0.553-0.315 0-0.606-0.102-0.843-0.275l0.004 0.003c-0.294-0.215-0.501-0.534-0.569-0.901l-0.001-0.009c-0.077-0.54-0.311-1.048-0.707-1.623-0.352-0.49-0.691-0.915-1.050-1.322l0.016 0.018c-0.16-0.192-0.33-0.393-0.512-0.613-1.197-1.455-2.535-3.341-2.535-6.247 0-5.634 4.511-10.062 10.5-10.062s10.5 4.428 10.5 10.063c0 2.905-1.338 4.791-2.535 6.246-0.181 0.22-0.351 0.422-0.512 0.611-0.395 0.47-0.731 0.868-1.033 1.305-0.397 0.575-0.63 1.083-0.707 1.623-0.057 0.389-0.262 0.721-0.554 0.944l-0.004 0.003c-0.236 0.18-0.536 0.288-0.86 0.288-0.071 0-0.141-0.005-0.209-0.015l0.008 0.001c-0.388-0.057-0.72-0.263-0.94-0.557l-0.003-0.004c-0.179-0.237-0.286-0.537-0.286-0.862 0-0.072 0.005-0.142 0.015-0.212l-0.001 0.008c0.16-1.137 0.643-2.066 1.185-2.854 0.388-0.56 0.859-1.119 1.285-1.625 0.143-0.169 0.281-0.332 0.407-0.485 1.071-1.301 1.88-2.53 1.88-4.416 0-3.948-3.125-7.187-7.636-7.187zM7.349 29.896c0-0.381 0.151-0.747 0.419-1.017 0.259-0.26 0.617-0.421 1.012-0.421h4.773c0.38 0 0.744 0.151 1.012 0.421 0.259 0.26 0.42 0.62 0.42 1.017s-0.16 0.756-0.42 1.017l0-0c-0.259 0.26-0.617 0.421-1.012 0.421h-4.773c-0.396-0-0.754-0.161-1.012-0.421l-0-0c-0.259-0.26-0.419-0.619-0.419-1.016 0-0 0-0.001 0-0.001v0zM6.871 23.667c-0.38 0-0.744 0.151-1.013 0.421-0.259 0.26-0.42 0.62-0.42 1.017s0.16 0.756 0.42 1.017l-0-0c0.259 0.26 0.617 0.421 1.013 0.421h8.591c0.38 0 0.744-0.151 1.013-0.421 0.259-0.26 0.42-0.62 0.42-1.017s-0.16-0.756-0.42-1.017l0 0c-0.259-0.26-0.617-0.421-1.013-0.421h-8.591z"></path>
</symbol>
<symbol id="icon-rukaserdce" viewBox="0 0 36 32">
<path fill="none" stroke="#c7df9e" style="stroke: var(--color1, #c7df9e)" stroke-linejoin="miter" stroke-linecap="butt" stroke-miterlimit="4" stroke-width="1.4545" d="M17.237 15.673c0.42 0.441 1.103 0.441 1.529 0l6.531-6.813c1.895-1.98 1.787-5.262-0.336-7.087-1.847-1.593-4.6-1.306-6.291 0.46l-0.672 0.698-0.665-0.692c-1.691-1.772-4.444-2.058-6.291-0.465-2.117 1.825-2.231 5.107-0.336 7.087l6.531 6.813zM34.629 20.302c-0.708-0.638-1.811-0.596-2.555 0l-5.541 4.409c-0.648 0.52-1.481 0.835-2.388 0.835-0.004 0-0.008 0-0.012-0h-7.094c0 0 0 0 0 0-0.528 0-0.957-0.427-0.96-0.954v-0c0.003-0.528 0.432-0.955 0.96-0.955 0 0 0 0 0 0h4.696c0.953 0 1.841-0.65 1.997-1.587 0.198-1.193-0.726-2.231-1.895-2.231h-9.596c-1.689 0-3.24 0.592-4.457 1.579l0.013-0.010-2.789 2.249h-3.322c0 0 0 0 0 0-0.528 0-0.957 0.427-0.96 0.955v5.728c0.003 0.528 0.432 0.954 0.96 0.954h21.398c0.869 0 1.715-0.292 2.399-0.835l9.068-7.218c0.441-0.351 0.722-0.889 0.722-1.491 0-0.567-0.248-1.076-0.642-1.424l-0.002-0.002z"></path>
</symbol>
<symbol id="icon-strela" viewBox="0 0 32 32">
<path fill="none" stroke="#c7df9e" style="stroke: var(--color1, #c7df9e)" stroke-linejoin="miter" stroke-linecap="butt" stroke-miterlimit="4" stroke-width="1.5422" d="M31.209 11.573c0.014 0.066 0.027 0.135 0.012 0.202-0.031 0.146-0.158 0.089-0.272 0.042-0.829-0.346-1.66-0.685-2.48-1.049-0.259-0.113-0.36-0.063-0.488 0.186-3.173 6.186-7.527 11.352-13.354 15.222-3.562 2.406-7.788 4.127-12.342 4.869l-0.181 0.024c-0.207 0.039-0.589 0.095-0.975 0.144l-0.147 0.015c-0.107 0.012-0.149-0.198-0.049-0.239 7.325-2.982 12.761-8.090 16.741-14.822 1.494-2.526 2.625-5.217 3.501-8.015 0.121-0.386 0.119-0.387-0.259-0.547-0.654-0.274-1.309-0.544-1.96-0.822l-0.003-0.002c-0.131-0.058-0.148-0.281-0.025-0.355 3.117-1.856 6.236-3.711 9.356-5.563 0.258-0.152 0.31-0.13 0.381 0.167 0.849 3.514 1.698 7.028 2.545 10.543z"></path>
</symbol>
</defs>
</svg>
