<svg width="87" height="79" viewBox="0 0 87 79" fill="none" xmlns="http://www.w3.org/2000/svg">
<path d="M74.2703 28.7609C66.3524 25.405 55.7183 23.2327 44.361 22.6395C42.6119 22.5346 40.86 22.4831 39.1078 22.4851C47.5042 12.271 56.5123 5.41282 62.4452 5.19071C63.609 5.14738 64.5987 5.38844 65.3926 5.89495C67.9567 7.56074 68.6636 12.2872 67.3612 18.861C67.2198 19.763 67.799 20.6514 68.6636 20.822C68.8784 20.8663 69.0999 20.8678 69.3154 20.8265C69.5308 20.7851 69.7358 20.7018 69.9188 20.5812C70.1018 20.4606 70.259 20.3052 70.3814 20.1239C70.5038 19.9425 70.5891 19.7389 70.6322 19.5246C72.2609 11.2878 71.0564 5.6268 67.2198 3.13218C65.8467 2.23022 64.1745 1.80226 62.3174 1.87539C54.8972 2.15708 44.4181 10.1854 34.8009 22.5447C30.8796 22.6456 26.9684 22.9893 23.09 23.574C20.7517 13.1052 21.6734 5.59971 25.2435 3.79308C25.7356 3.52493 26.2767 3.40033 26.8994 3.34074C29.4335 3.14572 32.9166 4.76817 36.7287 7.9264C37.4356 8.50333 38.4824 8.43291 39.0643 7.71242C39.2052 7.54654 39.3117 7.35444 39.3775 7.14726C39.4433 6.94007 39.4672 6.72193 39.4477 6.50549C39.4282 6.28905 39.3658 6.07862 39.264 5.8864C39.1623 5.69418 39.0232 5.524 38.8549 5.38573C34.2788 1.61807 30.0752 -0.22919 26.6302 0.0227097C25.6174 0.101735 24.6285 0.370047 23.7154 0.81362C19.3949 3.013 17.6683 9.22111 18.745 18.2922C18.9979 20.1665 19.3242 22.1276 19.8082 24.1319C7.90969 26.502 0.337204 31.2583 0.0109208 37.2226C-0.217477 41.4561 3.14052 45.4757 9.72328 48.8614C9.9174 48.9623 10.1297 49.0238 10.3479 49.0423C10.566 49.0608 10.7857 49.0359 10.9942 48.9692C11.2026 48.9024 11.3957 48.795 11.5621 48.6533C11.7285 48.5116 11.8651 48.3384 11.9638 48.1437C12.0652 47.95 12.1269 47.7382 12.1453 47.5206C12.1637 47.3029 12.1383 47.0838 12.0708 46.876C12.0032 46.6682 11.8947 46.4759 11.7517 46.3104C11.6087 46.1448 11.434 46.0093 11.2378 45.9118C5.98462 43.2167 3.15412 40.1831 3.3227 37.4068C3.50759 33.4983 9.75047 29.4895 20.5858 27.3633C21.6302 31.1545 22.9014 34.88 24.3924 38.52C20.6973 45.3348 18.019 52.0522 16.6486 58.0192C14.6067 66.9224 15.6997 73.2713 19.7619 75.8932C21.0643 76.7383 22.5788 77.1636 24.2782 77.1636C27.6634 77.1636 31.7692 75.4978 36.416 72.1987C36.5936 72.0724 36.7445 71.9125 36.8602 71.7282C36.9758 71.5438 37.0538 71.3385 37.0898 71.1241C37.1257 70.9097 37.119 70.6903 37.0698 70.4785C37.0207 70.2667 36.9302 70.0666 36.8034 69.8896C36.6767 69.7127 36.5162 69.5623 36.3311 69.4472C36.146 69.332 35.9399 69.2543 35.7247 69.2184C35.5094 69.1826 35.2892 69.1893 35.0766 69.2383C34.864 69.2872 34.6631 69.3774 34.4855 69.5037C28.8924 73.4934 24.1776 74.8206 21.5728 73.1251C18.8239 71.3347 18.2148 66.1152 19.9169 58.7668C21.0616 53.7586 23.2015 48.1843 26.1054 42.4421C26.826 44.0239 27.5927 45.603 28.3867 47.1848C33.5556 57.2852 39.8854 66.0583 46.1881 71.917C51.2156 76.5731 55.8896 79 59.7262 79C61.0014 79 62.1923 78.7291 63.2691 78.1955C67.4156 76.0801 69.2183 70.2106 68.3373 61.6758C67.5325 53.6773 64.5008 43.9399 59.7996 34.2215C59.6076 33.8292 59.2685 33.5279 58.8554 33.3825C58.4424 33.2371 57.9886 33.2592 57.5917 33.4441C57.3932 33.5376 57.2151 33.6692 57.0677 33.8314C56.9203 33.9935 56.8064 34.1831 56.7327 34.3892C56.6589 34.5952 56.6267 34.8138 56.6379 35.0323C56.6491 35.2507 56.7034 35.4649 56.7978 35.6624C66.5401 55.8902 67.2361 72.4533 61.7682 75.2323C55.9902 78.1793 42.096 66.7246 31.3477 45.6897C30.1656 43.4104 29.0745 41.0855 28.0767 38.7204C29.3084 36.5346 30.6108 34.319 32.0574 32.1196C33.4646 29.9703 34.9418 27.8673 36.4867 25.814H37.9196C39.8746 25.814 41.9981 25.8573 44.206 25.9846C67.8697 27.2279 83.9881 35.2372 83.6618 41.643C83.5204 44.4058 80.3038 47.2011 74.8657 49.3029C74.4714 49.4737 74.1587 49.7899 73.9932 50.1852C73.8278 50.5806 73.8223 51.0243 73.9781 51.4236C74.1338 51.8228 74.4386 52.1465 74.8287 52.3268C75.2187 52.5071 75.6636 52.53 76.0703 52.3907C82.9793 49.7255 86.7751 46.0553 86.9899 41.8137C87.2427 37.014 82.7563 32.3877 74.3002 28.8043V28.7745L74.2703 28.7609ZM29.2513 30.2859C28.293 31.7624 27.3718 33.2625 26.4888 34.7849C25.4842 32.1633 24.6103 29.4939 23.8704 26.7864C26.6437 26.3625 29.4356 26.0705 32.2368 25.9115C31.2035 27.3404 30.2124 28.7991 29.2649 30.2859V30.2452L29.2513 30.2859ZM43.4827 34.533C36.8401 34.533 36.8401 44.4654 43.4827 44.4654C50.1389 44.4654 50.1389 34.533 43.4827 34.533Z" fill="#C7DF9E"/>
</svg>
