<svg width="99" height="88" viewBox="0 0 99 88" fill="none" xmlns="http://www.w3.org/2000/svg">
<path d="M47.4029 43.0995C48.5573 44.3135 50.4374 44.3135 51.6084 43.0995L69.5683 24.3643C74.7798 18.9177 74.483 9.89461 68.6448 4.87451C63.5652 0.494224 55.9953 1.28169 51.3445 6.13774L49.4974 8.05719L47.6667 6.15414C43.016 1.28169 35.4461 0.494224 30.3665 4.87451C24.5448 9.89461 24.2314 18.9177 29.4429 24.3643L47.4029 43.0995ZM95.2301 55.8302C93.284 54.0748 90.2495 54.1896 88.2044 55.8302L72.9657 67.9539C71.1021 69.4468 68.7767 70.2507 66.3688 70.2507H46.8586C45.4073 70.2507 44.2199 69.0695 44.2199 67.6258C44.2199 66.1821 45.4073 65.0009 46.8586 65.0009H59.772C62.3942 65.0009 64.8351 63.2127 65.2639 60.637C65.8081 57.3559 63.2683 54.5013 60.0523 54.5013H33.6649C29.212 54.5013 24.9076 56.027 21.4442 58.816L13.7754 65.0009H4.63874C3.18743 65.0009 2 66.1821 2 67.6258V83.3751C2 84.8188 3.18743 86 4.63874 86H63.4827C65.8741 86 68.1995 85.1961 70.0796 83.7032L95.0157 63.8525C97.5225 61.8674 97.7204 58.0613 95.2301 55.8302Z" stroke="#C7DF9E" stroke-width="4"/>
</svg>
